<svg width="95" height="188" viewBox="0 0 95 188" fill="none" xmlns="http://www.w3.org/2000/svg">
<g id="Elements-geometric-shape-flower-1-nature" style="mix-blend-mode:hard-light" opacity="0.6">
<path id="Ellipse 3" d="M67.8698 24.6342C93.6168 50.3528 93.8369 93.7047 93.8369 93.7047C93.8369 93.7047 52.3128 95.3588 26.5658 69.6402C0.81875 43.9217 0.598655 0.569757 0.598655 0.569757C0.598655 0.569757 42.1228 -1.08427 67.8698 24.6342Z" fill="#FFD6E4"/>
<path id="Ellipse 4" d="M119.804 24.6342C94.057 50.3528 93.8369 93.7047 93.8369 93.7047C93.8369 93.7047 135.361 95.3588 161.108 69.6402C186.855 43.9217 187.075 0.569757 187.075 0.569757C187.075 0.569757 145.551 -1.08427 119.804 24.6342Z" fill="#FFD6E4"/>
<path id="Ellipse 5" d="M67.8698 162.739C93.6168 137.021 93.8369 93.6687 93.8369 93.6687C93.8369 93.6687 52.3128 92.0147 26.5658 117.733C0.81875 143.452 0.598655 186.804 0.598655 186.804C0.598655 186.804 42.1228 188.458 67.8698 162.739Z" fill="#FFD6E4"/>
<path id="Ellipse 6" d="M119.804 162.739C94.057 137.021 93.8369 93.6687 93.8369 93.6687C93.8369 93.6687 135.361 92.0147 161.108 117.733C186.855 143.452 187.075 186.804 187.075 186.804C187.075 186.804 145.551 188.458 119.804 162.739Z" fill="#FFD6E4"/>
</g>
</svg>
