<svg width="177" height="176" viewBox="0 0 177 176" fill="none" xmlns="http://www.w3.org/2000/svg">
<g id="Highlight Sparkle 6">
<g id="Group">
<path id="Vector" d="M87.5472 67.0607C115.869 47.8476 124.193 42.5602 124.193 41.1467C124.193 40.1521 120.423 40.8325 117.596 42.3507C102.31 50.5174 69.6427 73.7088 70.4282 75.9076C71.0565 77.792 73.8831 76.3265 87.5472 67.0607Z" fill="#FAFAFA"/>
<path id="Vector_2" d="M171.832 31.0955C171.832 29.2632 167.487 27.4832 164.817 28.2162C162.828 28.7396 154.19 34.7601 137.542 45.2826C121.47 55.3863 117.806 58.1609 118.748 59.6265C120.214 61.9825 128.171 56.0669 156.65 40.3616C172.303 31.6714 171.832 31.933 171.832 31.0955Z" fill="#FAFAFA"/>
<path id="Vector_3" d="M101.682 68.4212C68.8049 87.1101 76.0819 84.3357 50.2729 97.2664C27.2385 108.836 24.1498 109.569 15.826 105.852C6.50754 101.664 5.25119 102.868 9.0728 112.396C10.748 116.584 11.1668 118.207 10.9573 119.935C10.4862 123.861 8.49686 129.567 6.6122 132.132C0.644207 140.403 12.999 136.896 13.9413 136.477C18.81 134.383 23.731 136.477 30.8507 143.649C35.5623 148.361 42.8915 149.303 41.1115 144.958C37.2899 135.64 38.494 126.059 50.9535 115.223C61.0574 106.48 76.2914 94.3349 89.7976 85.1213C109.534 71.6144 111.209 70.2011 109.586 68.3162C108.487 67.0079 104.037 67.0601 101.682 68.4212ZM41.5304 113.861C29.5943 125.85 30.6937 133.912 30.3796 134.855C23.574 131.347 24.6209 131.609 15.9307 131.138L17.2919 128.206C20.2759 121.767 17.9725 113.129 17.9725 113.077L21.8988 114.333C29.385 116.689 35.5623 115.537 43.4149 110.354C45.0901 109.255 46.6084 108.313 46.7655 108.313C46.9749 108.26 44.619 110.773 41.5304 113.861Z" fill="#FAFAFA"/>
</g>
</g>
</svg>
