<svg width="172" height="172" viewBox="0 0 172 172" fill="none" xmlns="http://www.w3.org/2000/svg">
<g id="Highlight Sparkle 7">
<g id="Group">
<path id="Vector" d="M106.34 89.2177C120.115 91.9003 126.254 92.2217 125.592 90.24C125.234 89.2174 124.889 88.9205 123.094 88.0669C119.582 86.4545 103.29 83.4515 102.308 84.2475C100.947 85.3517 103.586 88.6697 106.34 89.2177Z" fill="#FAFAFA"/>
<path id="Vector_2" d="M88.2919 67.4847C89.8357 67.9645 89.911 67.7985 91.0245 60.1771C91.6529 56.0985 91.7029 53.1189 91.2199 51.3588C90.5734 48.9441 88.8036 48.9624 88.4822 50.3778C85.6484 62.5434 85.6253 66.656 88.2919 67.4847Z" fill="#FAFAFA"/>
<path id="Vector_3" d="M100.825 104.031C99.8285 101.637 94.9513 89.2185 94.6456 88.2592C94.4898 87.8083 94.9175 87.0415 95.8911 86.0418C103.085 78.4749 110.012 70.1263 110.339 68.6536C110.599 67.5505 108.888 65.8941 107.686 66.0295C106.484 66.165 96.5742 70.319 89.6194 73.6509L85.0762 75.8145C64.7927 62.4552 64.1233 61.371 68.2216 71.5355L71.8347 80.5193C73.8808 85.6301 73.9263 85.7502 73.093 86.7935C71.8936 88.2913 66.4711 96.1011 63.7258 99.6401C57.8056 107.224 65.0744 106.997 81.063 99.0141L84.7303 97.1941C85.1017 97.5226 87.2746 99.7485 97.9446 108.309C100.409 110.247 102.313 107.547 100.825 104.031ZM95.6276 100.793C95.2006 100.72 87.8993 95.148 86.7951 93.7867C85.4599 92.1406 84.3603 92.4026 75.4059 96.5692C69.4976 99.3146 69.3262 99.2968 71.6104 96.2893C74.4943 92.5329 77.2602 87.4023 78.0618 86.3846C78.7942 85.4757 77.9893 83.1894 74.0634 74.9845C72.0877 70.8664 71.9361 70.0972 73.3686 71.0868C75.1531 72.3161 83.9767 78.0179 84.6957 78.9043C85.389 79.759 86.6128 79.9736 87.7679 79.4565L99.3945 74.1197C101.432 73.2019 101.432 73.2022 95.8805 79.7522C89.6599 87.1597 89.8482 86.7441 91.2221 89.4086C92.9317 92.7456 96.1119 100.873 95.6276 100.793Z" fill="#FAFAFA"/>
<path id="Vector_4" d="M82.5334 101.862C81.837 102.427 80.1635 117.641 80.6388 119.197C81.6286 122.488 83.4721 122.042 84.0011 118.359C85.5061 108.374 84.7494 100.065 82.5334 101.862Z" fill="#FAFAFA"/>
<path id="Vector_5" d="M60.7354 79.1298C51.6899 76.3898 50.1752 76.4636 52.6403 79.5027C53.8472 80.9906 67.9948 85.103 68.6184 84.1247C69.5885 82.6031 67.1716 81.047 60.7354 79.1298Z" fill="#FAFAFA"/>
</g>
</g>
</svg>
